# Blender 5.0.1
# www.blender.org
mtllib apple.mtl
o Fruit
v -0.500000 -0.500000 0.500000
v -0.500000 0.500000 0.500000
v -0.500000 -0.500000 -0.500000
v -0.500000 0.500000 -0.500000
v 0.500000 -0.500000 0.500000
v 0.500000 0.500000 0.500000
v 0.500000 -0.500000 -0.500000
v 0.500000 0.500000 -0.500000
v -0.609568 -0.609568 -0.000000
v -0.609568 -0.609568 -0.000000
v -0.609568 -0.000000 0.609568
v -0.609568 -0.000000 0.609568
v -0.609568 0.609568 0.000000
v -0.609568 0.609568 0.000000
v -0.609568 -0.000000 -0.609568
v -0.609568 -0.000000 -0.609568
v 0.000000 -0.609568 -0.609568
v -0.000000 0.609568 -0.609568
v 0.609568 -0.000000 -0.609568
v 0.609568 -0.609568 0.000000
v 0.609568 -0.609568 0.000000
v 0.609568 0.609568 0.000000
v 0.609568 0.609568 0.000000
v 0.609568 -0.000000 0.609568
v -0.000000 -0.609568 0.609568
v -0.000000 0.609568 0.609568
v -0.839506 0.000000 0.000000
v -0.839506 0.000000 0.000000
v -0.839506 0.000000 0.000000
v -0.839506 0.000000 0.000000
v 0.000000 0.000000 -0.839506
v 0.839506 0.000000 0.000000
v 0.839506 0.000000 0.000000
v -0.000000 0.000000 0.839506
v 0.000000 -0.839506 0.000000
v 0.000000 -0.839506 0.000000
v -0.000000 0.839506 0.000000
v -0.000000 0.839506 0.000000
v 0.192523 1.061403 0.335010
v 0.192523 1.176340 0.335010
v -0.033867 0.835012 -0.006319
v -0.033867 0.835012 -0.006319
v -0.033867 0.835012 -0.006319
v -0.033867 0.835012 -0.006319
v 0.083278 1.285585 0.182294
v 0.083278 1.285585 0.182294
v 0.416706 0.952157 0.515722
v 0.416706 0.952157 0.515722
v 0.533852 1.402731 0.561401
v 0.533852 1.402731 0.561401
v 0.533852 1.402731 0.561401
v 0.533852 1.402731 0.561401
v 0.307461 1.061403 0.291539
v 0.307461 1.176340 0.291539
v 0.249992 1.402731 0.277541
v 0.249992 1.402731 0.277541
v 0.249992 0.835012 0.277541
v 0.249992 0.835012 0.277541
v -0.008851 1.166202 -0.089989
v -0.008851 1.166202 -0.089989
v 0.018216 0.794095 -0.035633
v 0.018216 0.794095 -0.035633
v -0.008851 1.166202 0.010787
v -0.008851 1.166202 0.010787
v 0.018216 0.794095 0.021676
v 0.018216 0.794095 0.021676
v -0.109627 1.166202 -0.089989
v -0.109627 1.166202 -0.089989
v -0.039093 0.794095 -0.035633
v -0.039093 0.794095 -0.035633
v -0.109627 1.166202 0.010787
v -0.109627 1.166202 0.010787
v -0.039093 0.794095 0.021676
v -0.039093 0.794095 0.021676
vn -0.5774 -0.5774 0.5774
vn -0.7071 -0.0001 0.7071
vn -1.0000 -0.0000 -0.0000
vn -0.7071 0.0001 0.7071
vn -0.5774 0.5774 0.5774
vn -0.5774 0.5774 -0.5774
vn -0.7071 0.0001 -0.7071
vn -0.7071 -0.7071 -0.0001
vn -0.5774 -0.5774 -0.5774
vn -0.0000 -0.0000 -1.0000
vn -0.0000 -0.7071 -0.7071
vn 0.5774 0.5774 -0.5774
vn 0.7071 -0.0000 -0.7071
vn 0.5774 -0.5774 -0.5774
vn 1.0000 -0.0000 -0.0001
vn 0.7071 -0.7071 -0.0001
vn 1.0000 -0.0000 0.0001
vn 0.5774 0.5774 0.5774
vn 0.7071 -0.0000 0.7071
vn 0.7071 -0.7071 0.0001
vn 0.5774 -0.5774 0.5774
vn -0.0000 -0.0000 1.0000
vn -0.0000 -0.7071 0.7071
vn -0.0000 -1.0000 -0.0001
vn -0.0000 -1.0000 0.0001
vn -0.7071 -0.7071 0.0001
vn -0.0000 1.0000 -0.0001
vn 0.7071 0.7071 -0.0001
vn -0.0000 0.7071 -0.7071
vn -0.0000 1.0000 0.0001
vn -0.0000 0.7071 0.7071
vn 0.7071 0.7071 0.0001
vn -0.7071 0.7071 -0.0001
vn -0.7071 0.7071 0.0001
vn -0.7071 -0.0001 -0.7071
vn -0.7288 -0.1232 0.6735
vn -0.7091 0.1221 0.6945
vn -0.7634 -0.1708 0.6229
vn 0.6230 0.0398 -0.7812
vn 0.6992 0.0406 -0.7138
vn 0.7954 -0.0594 -0.6031
vn 0.8423 -0.1440 -0.5194
vn -0.6388 -0.0845 0.7647
vn 0.6231 0.0398 -0.7811
vn 0.7582 -0.1533 -0.6337
vn 0.5921 0.1009 -0.7995
vn 0.7788 -0.0320 -0.6265
vn -0.6237 0.1797 0.7607
vn -0.6538 0.3378 0.6770
vn -0.7575 0.1354 0.6387
vn 0.4936 0.1576 -0.8553
vn -0.6738 -0.3379 0.6571
vn -0.7634 -0.1709 0.6229
vn 0.5483 0.5539 -0.6265
vn -0.6359 0.5315 0.5596
vn 0.5554 0.6039 0.5717
vn -0.5207 -0.6632 -0.5376
vn 0.6090 -0.5919 -0.5279
vn 0.5980 -0.5505 0.5825
vn 0.5981 -0.5505 0.5825
vn -0.5152 -0.6144 0.5976
vn 0.5483 0.5540 -0.6265
vn 0.5554 0.6039 0.5718
vn -0.6233 0.4907 -0.6089
vt 0.860179 0.572879
vt 0.972615 0.519772
vt 0.999830 0.696442
vt 0.972615 0.177696
vt 0.860179 0.124589
vt 0.999830 0.001027
vt 0.000170 0.001027
vt 0.139821 0.124589
vt 0.027385 0.177696
vt 0.168368 0.697299
vt 0.000170 0.696442
vt 0.139821 0.572880
vt 0.153684 0.348734
vt 0.238772 0.508024
vt 0.344159 0.236763
vt 0.335404 0.348734
vt 0.344159 0.460706
vt 0.499830 0.348734
vt 0.453033 0.519446
vt 0.500170 0.348734
vt 0.655841 0.236763
vt 0.664596 0.348734
vt 0.546967 0.519446
vt 0.655841 0.460706
vt 0.846316 0.348734
vt 0.761228 0.508024
vt 0.329085 0.644532
vt 0.670916 0.644532
vt 0.831632 0.697298
vt 0.329085 0.052937
vt 0.453033 0.178023
vt 0.238772 0.189445
vt 0.670916 0.052937
vt 0.761228 0.189445
vt 0.546967 0.178023
vt 0.168368 0.000170
vt 0.831632 0.000170
vt 0.027385 0.519773
vt 0.086242 0.815045
vt 0.060299 0.833174
vt 0.076840 0.697639
vt 0.216325 0.697639
vt 0.224128 0.843152
vt 0.198878 0.824550
vt 0.144945 0.866127
vt 0.144604 0.865209
vt 0.157250 0.698597
vt 0.144945 0.799575
vt 0.283302 0.851126
vt 0.256754 0.945304
vt 0.012149 0.944880
vt 0.000170 0.846029
vt 0.015929 0.801627
vt 0.278715 0.802637
vt 0.144604 0.796832
vt 0.123287 0.699566
vt 0.220206 0.948819
vt 0.071180 0.951386
vt 0.308770 0.816794
vt 0.283643 0.791683
vt 0.308776 0.790618
vt 0.309796 0.807659
vt 0.309987 0.791626
vt 0.324252 0.793148
vt 0.309455 0.697639
vt 0.295272 0.698727
vt 0.310061 0.697639
vt 0.334777 0.701457
vt 0.295271 0.909631
vt 0.283857 0.815743
vt 0.309455 0.910709
vt 0.323869 0.806124
vt 0.310059 0.903017
vt 0.334777 0.899207
s 1
usemtl apple
f 1/1/1 11/2/2 29/3/3
f 12/4/4 2/5/5 30/6/3
f 28/7/3 4/8/6 15/9/7
f 9/10/8 27/11/3 3/12/9
f 3/12/9 31/13/10 17/14/11
f 15/9/7 4/8/6 31/13/10
f 31/13/10 8/15/12 19/16/13
f 17/14/11 31/13/10 7/17/14
f 7/17/14 32/18/15 20/19/16
f 19/16/13 8/15/12 32/18/15
f 33/20/17 6/21/18 24/22/19
f 21/23/20 33/20/17 5/24/21
f 5/24/21 24/22/19 34/25/22
f 24/22/19 6/21/18 34/25/22
f 34/25/22 2/5/5 12/4/4
f 25/26/23 34/25/22 1/1/1
f 3/12/9 35/27/24 9/10/8
f 17/14/11 7/17/14 35/27/24
f 36/28/25 5/24/21 25/26/23
f 10/29/26 36/28/25 1/1/1
f 8/15/12 37/30/27 22/31/28
f 18/32/29 4/8/6 37/30/27
f 38/33/30 2/5/5 26/34/31
f 23/35/32 38/33/30 6/21/18
f 6/21/18 33/20/17 23/35/32
f 37/30/27 8/15/12 18/32/29
f 32/18/15 8/15/12 22/31/28
f 6/21/18 38/33/30 26/34/31
f 37/30/27 4/8/6 13/36/33
f 8/15/12 31/13/10 18/32/29
f 31/13/10 4/8/6 18/32/29
f 30/6/3 2/5/5 14/37/34
f 2/5/5 38/33/30 14/37/34
f 4/8/6 28/7/3 13/36/33
f 34/25/22 6/21/18 26/34/31
f 2/5/5 34/25/22 26/34/31
f 1/1/1 34/25/22 11/2/2
f 5/24/21 36/28/25 21/23/20
f 1/1/1 36/28/25 25/26/23
f 34/25/22 25/26/23 5/24/21
f 35/27/24 7/17/14 20/19/16
f 7/17/14 31/13/10 19/16/13
f 31/13/10 3/12/9 16/38/35
f 35/27/24 3/12/9 17/14/11
f 29/3/3 10/29/26 1/1/1
f 3/12/9 27/11/3 16/38/35
f 32/18/15 7/17/14 19/16/13
f 5/24/21 33/20/17 24/22/19
f 39/39/36 40/40/37 43/41/38
f 42/42/39 54/43/40 53/44/41
f 53/44/41 54/43/40 47/45/42
f 48/46/43 40/40/37 39/39/36
f 41/47/44 53/44/41 57/48/45
f 54/43/40 55/49/46 50/50/47
f 51/51/48 56/52/49 40/40/37
f 40/40/37 56/52/49 46/53/50
f 55/49/46 54/43/40 45/54/51
f 48/46/43 39/39/36 58/55/52
f 58/55/52 39/39/36 44/56/53
f 57/48/45 53/44/41 47/45/42
f 54/43/40 42/42/39 45/54/51
f 47/45/42 54/43/40 49/57/47
f 43/41/38 40/40/37 46/53/50
f 40/40/37 48/46/43 52/58/48
f 59/59/54 71/60/55 63/61/56
f 70/62/57 62/63/58 66/64/59
f 65/65/60 63/61/56 73/66/61
f 62/63/58 60/67/62 64/68/63
f 69/69/57 67/70/64 61/71/58
f 74/72/61 68/73/64 70/62/57
f 73/66/61 63/61/56 71/60/55
f 68/73/64 74/72/61 72/74/55
f 64/68/63 66/64/59 62/63/58
f 61/71/58 67/70/64 59/59/54
f 71/60/55 59/59/54 67/70/64
f 66/64/59 74/72/61 70/62/57
