# Blender 5.0.1
# www.blender.org
mtllib banana.mtl
o banana
v 0.060907 0.942558 1.516060
v -0.060907 0.942558 1.516060
v 0.045117 0.769999 1.143466
v -0.045117 0.769999 1.143466
v -0.090233 0.690967 1.143466
v -0.045117 0.769999 1.143466
v -0.121815 0.835864 1.516060
v -0.060907 0.942558 1.516060
v 0.090233 0.690967 1.143466
v 0.045117 0.611935 1.143466
v 0.121815 0.835864 1.516060
v 0.060907 0.729171 1.516060
v -0.060907 0.729171 1.516060
v -0.121815 0.835864 1.516060
v 0.060907 0.729171 1.516060
v 0.121815 0.835864 1.516060
v -0.060907 0.942558 1.516060
v 0.060907 0.942558 1.516060
v 0.060907 0.729171 1.516060
v 0.045117 0.611935 1.143466
v -0.060907 0.729171 1.516060
v -0.045117 0.611935 1.143466
v -0.090233 0.690967 1.143466
v -0.121815 0.835864 1.516060
v -0.045117 0.611935 1.143466
v -0.060907 0.729171 1.516060
v 0.045117 0.769999 1.143466
v 0.090233 0.690967 1.143466
v 0.060907 0.942558 1.516060
v 0.121815 0.835864 1.516060
v -0.057407 0.711622 -1.516060
v -0.114813 0.811053 -1.516060
v -0.063883 0.610866 -1.405822
v -0.127767 0.721515 -1.405822
v 0.114813 0.811053 -1.516060
v 0.127767 0.721515 -1.405822
v 0.057407 0.910484 -1.516060
v 0.063883 0.832165 -1.405822
v -0.114813 0.811053 -1.516060
v -0.057407 0.910484 -1.516060
v -0.127767 0.721515 -1.405822
v -0.063883 0.832165 -1.405822
v 0.063883 0.610866 -1.405822
v 0.057407 0.711622 -1.516060
v -0.063883 0.610866 -1.405822
v -0.057407 0.711622 -1.516060
v 0.057407 0.711622 -1.516060
v 0.063883 0.610866 -1.405822
v 0.114813 0.811053 -1.516060
v 0.127767 0.721515 -1.405822
v 0.063883 0.832165 -1.405822
v -0.063883 0.832165 -1.405822
v 0.057407 0.910484 -1.516060
v -0.057407 0.910484 -1.516060
v -0.057407 0.711622 -1.516060
v 0.057407 0.711622 -1.516060
v -0.114813 0.811053 -1.516060
v 0.114813 0.811053 -1.516060
v -0.057407 0.910484 -1.516060
v 0.057407 0.910484 -1.516060
v -0.331194 0.286823 -0.131165
v -0.165597 0.573645 -0.131165
v -0.291451 0.318373 0.339327
v -0.165597 0.573645 -0.131165
v -0.145726 0.573645 0.339327
v -0.291451 0.318373 0.339327
v 0.145726 0.573645 0.339327
v 0.165597 0.573645 -0.131165
v 0.291451 0.318373 0.339327
v 0.331194 0.286823 -0.131165
v 0.145726 0.063101 0.339327
v 0.291451 0.318373 0.339327
v 0.331194 0.286823 -0.131165
v 0.165597 0.000000 -0.131165
v 0.145726 0.063101 0.339327
v -0.145726 0.063101 0.339327
v -0.331194 0.286823 -0.131165
v -0.291451 0.318373 0.339327
v 0.165597 0.573645 -0.131165
v 0.331194 0.286823 -0.131165
v 0.291451 0.318373 0.339327
v -0.165597 0.000000 -0.131165
v -0.331194 0.286823 -0.131165
v -0.145726 0.063101 0.339327
v 0.155661 0.597835 -0.627956
v 0.311323 0.328222 -0.627956
v 0.165597 0.573645 -0.131165
v 0.331194 0.286823 -0.131165
v 0.145726 0.573645 0.339327
v 0.291451 0.318373 0.339327
v 0.104922 0.688466 0.864979
v 0.209845 0.504670 0.864979
v 0.155661 0.058609 -0.627956
v 0.165597 0.000000 -0.131165
v 0.311323 0.328222 -0.627956
v 0.331194 0.286823 -0.131165
v 0.165597 0.573645 -0.131165
v -0.165597 0.573645 -0.131165
v 0.155661 0.597835 -0.627956
v -0.155661 0.597835 -0.627956
v 0.145726 0.063101 0.339327
v 0.104922 0.320874 0.864979
v 0.291451 0.318373 0.339327
v 0.209845 0.504670 0.864979
v -0.104922 0.320874 0.864979
v -0.045117 0.611935 1.143466
v 0.104922 0.320874 0.864979
v 0.045117 0.611935 1.143466
v 0.209845 0.504670 0.864979
v 0.104922 0.320874 0.864979
v 0.090233 0.690967 1.143466
v 0.045117 0.611935 1.143466
v 0.165597 0.000000 -0.131165
v -0.165597 0.000000 -0.131165
v 0.145726 0.063101 0.339327
v -0.145726 0.063101 0.339327
v 0.104922 0.688466 0.864979
v 0.045117 0.769999 1.143466
v -0.104922 0.688466 0.864979
v -0.045117 0.769999 1.143466
v -0.209845 0.504670 0.864979
v -0.104922 0.688466 0.864979
v -0.090233 0.690967 1.143466
v -0.045117 0.769999 1.143466
v 0.145726 0.573645 0.339327
v 0.104922 0.688466 0.864979
v -0.145726 0.573645 0.339327
v -0.104922 0.688466 0.864979
v 0.145726 0.063101 0.339327
v -0.145726 0.063101 0.339327
v 0.104922 0.320874 0.864979
v -0.104922 0.320874 0.864979
v 0.165597 0.573645 -0.131165
v 0.145726 0.573645 0.339327
v -0.165597 0.573645 -0.131165
v -0.145726 0.573645 0.339327
v -0.145726 0.573645 0.339327
v -0.104922 0.688466 0.864979
v -0.291451 0.318373 0.339327
v -0.209845 0.504670 0.864979
v -0.145726 0.063101 0.339327
v -0.291451 0.318373 0.339327
v -0.104922 0.320874 0.864979
v -0.209845 0.504670 0.864979
v 0.209845 0.504670 0.864979
v 0.090233 0.690967 1.143466
v 0.104922 0.688466 0.864979
v 0.045117 0.769999 1.143466
v -0.209845 0.504670 0.864979
v -0.090233 0.690967 1.143466
v -0.104922 0.320874 0.864979
v -0.045117 0.611935 1.143466
v -0.112076 0.299698 -1.127316
v 0.112076 0.299698 -1.127316
v -0.063883 0.610866 -1.405822
v 0.063883 0.610866 -1.405822
v 0.165597 0.000000 -0.131165
v 0.155661 0.058609 -0.627956
v -0.165597 0.000000 -0.131165
v -0.155661 0.058609 -0.627956
v 0.112076 0.687941 -1.127316
v -0.112076 0.687941 -1.127316
v 0.063883 0.832165 -1.405822
v -0.063883 0.832165 -1.405822
v 0.155661 0.597835 -0.627956
v -0.155661 0.597835 -0.627956
v 0.112076 0.687941 -1.127316
v -0.112076 0.687941 -1.127316
v -0.224152 0.493819 -1.127316
v -0.311323 0.328222 -0.627956
v -0.112076 0.299698 -1.127316
v -0.155661 0.058609 -0.627956
v -0.127767 0.721515 -1.405822
v -0.063883 0.832165 -1.405822
v -0.224152 0.493819 -1.127316
v -0.112076 0.687941 -1.127316
v -0.224152 0.493819 -1.127316
v -0.112076 0.687941 -1.127316
v -0.311323 0.328222 -0.627956
v -0.155661 0.597835 -0.627956
v 0.155661 0.058609 -0.627956
v 0.112076 0.299698 -1.127316
v -0.155661 0.058609 -0.627956
v -0.112076 0.299698 -1.127316
v -0.155661 0.058609 -0.627956
v -0.311323 0.328222 -0.627956
v -0.165597 0.000000 -0.131165
v -0.331194 0.286823 -0.131165
v -0.063883 0.610866 -1.405822
v -0.127767 0.721515 -1.405822
v -0.112076 0.299698 -1.127316
v -0.224152 0.493819 -1.127316
v 0.224152 0.493819 -1.127316
v 0.112076 0.299698 -1.127316
v 0.311323 0.328222 -0.627956
v 0.155661 0.058609 -0.627956
v 0.224152 0.493819 -1.127316
v 0.311323 0.328222 -0.627956
v 0.112076 0.687941 -1.127316
v 0.155661 0.597835 -0.627956
v -0.155661 0.597835 -0.627956
v -0.165597 0.573645 -0.131165
v -0.311323 0.328222 -0.627956
v -0.331194 0.286823 -0.131165
v 0.063883 0.610866 -1.405822
v 0.112076 0.299698 -1.127316
v 0.127767 0.721515 -1.405822
v 0.224152 0.493819 -1.127316
v 0.063883 0.832165 -1.405822
v 0.127767 0.721515 -1.405822
v 0.112076 0.687941 -1.127316
v 0.224152 0.493819 -1.127316
vn 0.5196 0.7667 -0.3771
vn -0.4223 0.8156 -0.3956
vn 0.4223 0.8156 -0.3956
vn -0.5196 0.7667 -0.3771
vn -0.9858 0.1102 -0.1265
vn -0.9921 -0.1197 -0.0375
vn 0.9858 0.1102 -0.1264
vn 0.4404 -0.8616 0.2524
vn 0.9921 -0.1197 -0.0376
vn 0.5439 -0.8068 0.2308
vn -0.0000 -0.0000 1.0000
vn -0.5439 -0.8068 0.2308
vn -0.4404 -0.8616 0.2524
vn -0.9858 0.1102 -0.1264
vn -0.9921 -0.1196 -0.0376
vn -0.3308 -0.6868 -0.6472
vn -0.9744 0.2165 0.0613
vn -0.4884 -0.6296 -0.6041
vn -0.9450 -0.1905 -0.2658
vn 0.3598 0.7705 0.5262
vn 0.9450 -0.1905 -0.2658
vn 0.9744 0.2165 0.0613
vn 0.5445 0.6986 0.4643
vn -0.3598 0.7705 0.5263
vn -0.5445 0.6986 0.4643
vn -0.3307 -0.6869 -0.6472
vn 0.4884 -0.6296 -0.6042
vn 0.3307 -0.6869 -0.6472
vn -0.4884 -0.6296 -0.6042
vn 0.3308 -0.6868 -0.6472
vn 0.3597 0.7705 0.5263
vn 0.5445 0.6985 0.4643
vn -0.3597 0.7705 0.5263
vn -0.0000 -0.0000 -1.0000
vn -0.9906 -0.0347 0.1321
vn -0.5109 0.8592 0.0272
vn -0.9995 -0.0228 0.0207
vn -0.9906 -0.0347 0.1320
vn -0.5220 0.8508 -0.0603
vn 0.9906 -0.0347 0.1320
vn 0.5109 0.8592 0.0272
vn 0.5220 0.8508 -0.0603
vn 0.9906 -0.0347 0.1321
vn 0.4719 -0.8386 0.2722
vn 0.9995 -0.0228 0.0207
vn 0.4906 -0.8713 0.0118
vn -0.4719 -0.8386 0.2722
vn 0.9995 -0.0228 0.0208
vn -0.4906 -0.8713 0.0117
vn 0.5110 0.8592 0.0272
vn 0.9927 -0.0299 -0.1167
vn 0.5173 0.8531 0.0686
vn 0.5248 0.8409 -0.1319
vn 0.5220 0.8508 -0.0604
vn 0.9599 0.0019 0.2802
vn 0.4749 -0.8412 -0.2584
vn 0.5173 0.8530 0.0686
vn -0.5173 0.8530 0.0686
vn 0.4357 -0.7141 0.5479
vn -0.4280 -0.5774 0.6953
vn -0.4357 -0.7141 0.5479
vn 0.4280 -0.5774 0.6953
vn 0.9417 0.1955 0.2737
vn 0.9599 0.0020 0.2802
vn 0.4280 -0.5773 0.6953
vn -0.4906 -0.8713 0.0118
vn 0.4906 -0.8713 0.0117
vn -0.5248 0.8409 -0.1318
vn 0.4117 0.8947 -0.1735
vn -0.4117 0.8946 -0.1735
vn -0.9417 0.1955 0.2737
vn -0.5248 0.8410 -0.1318
vn -0.9599 0.0019 0.2802
vn -0.4719 -0.8385 0.2723
vn -0.5110 0.8592 0.0272
vn 0.5248 0.8410 -0.1318
vn -0.9418 0.1955 0.2736
vn -0.4280 -0.5773 0.6953
vn -0.4324 -0.5632 -0.7041
vn 0.4271 -0.7130 -0.5560
vn -0.4271 -0.7130 -0.5560
vn 0.4324 -0.5632 -0.7041
vn 0.4750 -0.8412 -0.2585
vn -0.4750 -0.8412 -0.2585
vn 0.3811 0.8462 0.3723
vn -0.5291 0.8215 0.2125
vn 0.5291 0.8215 0.2125
vn -0.3811 0.8462 0.3723
vn -0.5173 0.8530 0.0687
vn -0.9927 -0.0299 -0.1168
vn -0.9598 -0.0155 -0.2801
vn -0.9624 0.2295 -0.1454
vn -0.9927 -0.0299 -0.1167
vn -0.9598 -0.0156 -0.2801
vn -0.5173 0.8531 0.0686
vn -0.4750 -0.8412 -0.2584
vn 0.4750 -0.8412 -0.2584
vn -0.4272 -0.7130 -0.5560
vn -0.4325 -0.5632 -0.7041
vn 0.9927 -0.0299 -0.1168
vn 0.9598 -0.0155 -0.2801
vn 0.9624 0.2295 -0.1454
vn 0.4272 -0.7130 -0.5560
vn 0.4325 -0.5632 -0.7041
vn 0.5291 0.8216 0.2124
vn 0.3811 0.8463 0.3723
vt 0.218750 0.623592
vt 0.218750 0.770052
vt 0.218750 0.679496
vt 0.218750 0.556513
vt 0.218750 0.489434
vt 0.218750 0.588939
vt 0.218750 0.488527
vt 0.218750 0.658437
vt 0.218750 0.574045
vt 0.218750 0.582441
vt 0.218750 0.742830
vt 0.218750 0.676355
vt 0.718750 0.381249
vt 0.718750 0.597912
vt 0.718750 0.354470
vt 0.718750 0.164586
vt 0.718750 0.111028
vt 0.718750 0.389608
vt 0.718750 0.618444
vt 0.718750 0.695367
vt 0.718750 0.539369
vt 0.718750 0.160773
vt 0.718750 0.383371
vt 0.718750 0.630410
vt 0.718750 0.697489
vt 0.718750 0.764568
vt 0.718750 0.629503
vt 0.718750 0.365398
vt 0.718750 0.817332
vt 0.718750 0.694921
vt 0.718750 0.530160
vt 0.718750 0.723417
s 1
usemtl banana
f 3/1/1 2/2/2 1/2/3
f 2/2/2 3/1/1 4/1/4
f 7/3/5 6/1/4 5/4/6
f 6/1/4 7/3/5 8/2/2
f 11/3/7 10/5/8 9/4/9
f 10/5/8 11/3/7 12/6/10
s 0
f 15/6/11 14/3/11 13/6/11
f 14/3/11 15/6/11 16/3/11
f 14/3/11 16/3/11 17/2/11
f 17/2/11 16/3/11 18/2/11
s 1
f 21/6/12 20/5/8 19/6/10
f 20/5/8 21/6/12 22/5/13
f 25/5/13 24/3/14 23/4/15
f 24/3/14 25/5/13 26/6/12
f 29/2/3 28/4/9 27/1/1
f 28/4/9 29/2/3 30/3/7
f 33/7/16 32/8/17 31/9/18
f 32/8/17 33/7/16 34/10/19
f 37/11/20 36/10/21 35/8/22
f 36/10/21 37/11/20 38/12/23
f 41/10/19 40/11/24 39/8/17
f 40/11/24 41/10/19 42/12/25
f 45/7/26 44/9/27 43/7/28
f 44/9/27 45/7/26 46/9/29
f 49/8/22 48/7/30 47/9/27
f 48/7/30 49/8/22 50/10/21
f 53/11/31 52/12/25 51/12/32
f 52/12/25 53/11/31 54/11/33
s 0
f 57/8/34 56/9/34 55/9/34
f 56/9/34 57/8/34 58/8/34
f 58/8/34 57/8/34 59/11/34
f 58/8/34 59/11/34 60/11/34
s 1
f 63/13/35 62/14/36 61/15/37
f 66/13/38 65/14/39 64/14/36
f 69/13/40 68/14/41 67/14/42
f 72/13/43 71/16/44 70/15/45
f 75/16/44 74/17/46 73/15/45
f 78/13/35 77/15/37 76/16/47
f 81/13/40 80/15/48 79/14/41
f 84/16/47 83/15/37 82/17/49
f 87/14/50 86/18/51 85/19/52
f 86/18/51 87/14/50 88/15/45
f 91/20/53 90/13/40 89/14/54
f 90/13/40 91/20/53 92/21/55
f 95/18/51 94/17/46 93/22/56
f 94/17/46 95/18/51 96/15/45
f 99/19/57 98/14/36 97/14/41
f 98/14/36 99/19/57 100/19/58
f 103/13/43 102/23/59 101/16/44
f 102/23/59 103/13/43 104/21/55
f 107/23/59 106/24/60 105/23/61
f 106/24/60 107/23/59 108/24/62
f 111/25/63 110/23/59 109/21/64
f 110/23/59 111/25/63 112/24/65
f 115/16/44 114/17/66 113/17/67
f 114/17/66 115/16/44 116/16/47
f 119/20/68 118/26/69 117/20/53
f 118/26/69 119/20/68 120/26/70
f 123/25/71 122/20/72 121/21/73
f 122/20/72 123/25/71 124/26/70
f 127/14/39 126/20/53 125/14/54
f 126/20/53 127/14/39 128/20/68
f 131/23/59 130/16/74 129/16/44
f 130/16/74 131/23/59 132/23/61
f 135/14/75 134/14/54 133/14/50
f 134/14/54 135/14/75 136/14/39
f 139/13/35 138/20/68 137/14/39
f 138/20/68 139/13/35 140/21/73
f 143/23/61 142/13/35 141/16/47
f 142/13/35 143/23/61 144/21/73
f 147/20/76 146/25/63 145/21/55
f 146/25/63 147/20/76 148/26/69
f 151/23/61 150/25/77 149/21/73
f 150/25/77 151/23/61 152/24/78
f 155/27/79 154/28/80 153/28/81
f 154/28/80 155/27/79 156/27/82
f 159/17/66 158/22/83 157/17/46
f 158/22/83 159/17/66 160/22/84
f 163/29/85 162/30/86 161/30/87
f 162/30/86 163/29/85 164/29/88
f 167/30/87 166/19/89 165/19/57
f 166/19/89 167/30/87 168/30/86
f 171/28/81 170/18/90 169/31/91
f 170/18/90 171/28/81 172/22/84
f 175/31/91 174/29/88 173/32/92
f 174/29/88 175/31/91 176/30/86
f 179/18/93 178/30/86 177/31/94
f 178/30/86 179/18/93 180/19/95
f 183/22/96 182/28/80 181/22/97
f 182/28/80 183/22/96 184/28/81
f 187/17/66 186/18/93 185/22/84
f 186/18/93 187/17/66 188/15/37
f 191/28/98 190/32/92 189/27/99
f 190/32/92 191/28/98 192/31/91
f 195/18/100 194/28/80 193/31/101
f 194/28/80 195/18/100 196/22/83
f 199/30/87 198/18/51 197/31/101
f 198/18/51 199/30/87 200/19/52
f 203/18/93 202/14/75 201/19/95
f 202/14/75 203/18/93 204/15/37
f 207/32/102 206/28/103 205/27/104
f 206/28/103 207/32/102 208/31/101
f 211/30/105 210/32/102 209/29/106
f 210/32/102 211/30/105 212/31/101
